<svg viewBox="0 0 800 800" xmlns="http://www.w3.org/2000/svg"><path d="M413.37615122697684,536.9451610879811 L413.38733621315043,420.9204776876357 M413.37615122697684,536.9451610879811 L501.34046627159995,587.7765806082768 M413.38733621315043,420.9204776876357 L501.43008576298485,471.7067036909761 M501.34046627159995,587.7765806082768 L501.43008576298485,471.7067036909761 M413.37615122697684,536.9451610879811 L410.2673781312408,535.5125093339411 M410.2673781312408,535.5125093339411 L406.68511114222594,534.5155685207824 M406.68511114222594,534.5155685207824 L402.8089142483063,534.0042934280048 M402.8089142483063,534.0042934280048 L398.8330942458628,534.0042934280048 M398.8330942458628,534.0042934280048 L394.9568973519431,534.5155685207824 M394.9568973519431,534.5155685207824 L391.37463036292826,535.5125093339411 M391.37463036292826,535.5125093339411 L388.26585726719225,536.9451610879811 M413.38733621315043,420.9204776876357 L410.2757934240564,419.4891007065028 M410.2757934240564,419.4891007065028 L406.6903350961131,418.49304700390314 M406.6903350961131,418.49304700390314 L402.81068513496905,417.982226870958 M402.81068513496905,417.982226870958 L398.8313233592,417.982226870958 M398.8313233592,417.982226870958 L394.951673398056,418.49304700390314 M394.951673398056,418.49304700390314 L391.3662150701126,419.4891007065028 M391.3662150701126,419.4891007065028 L388.2546722810186,420.9204776876357 M388.26585726719225,536.9451610879811 L388.2546722810186,420.9204776876357 M425.9257119345754,544.1777523974748 L423.13316625839786,545.4290144474589 M423.13316625839786,545.4290144474589 L420.48061601414184,545.8911723388429 M420.48061601414184,545.8911723388429 L418.101064422277,545.5409810879297 M418.101064422277,545.5409810879297 L416.11385970686916,544.3959135547952 M416.11385970686916,544.3959135547952 L414.6186815409389,542.5133164152105 M414.6186815409389,542.5133164152105 L413.69058058058624,539.9875225647888 M413.69058058058624,539.9875225647888 L413.37615122697684,536.9451610879811 M425.9257119345754,544.1777523974748 L513.8802216018041,595.0034906643058 M513.8802216018041,595.0034906643058 L511.0879240782808,596.2571287039826 M511.0879240782808,596.2571287039826 L508.43610053478386,596.7212612732004 M508.43610053478386,596.7212612732004 L506.0577177965978,596.3725442920197 M506.0577177965978,596.3725442920197 L504.0720655414829,595.2283765770429 M504.0720655414829,595.2283765770429 L502.57874566708716,593.3460595711055 M502.57874566708716,593.3460595711055 L501.6527157112325,590.8199119975933 M501.6527157112325,590.8199119975933 L501.34046627159995,587.7765806082768 M425.95366817921627,399.15495225763266 L423.1578887167858,401.13163298371717 M423.1578887167858,401.13163298371717 L420.5020758660401,403.7373007703065 M420.5020758660401,403.7373007703065 L418.1194684462911,406.84125045352437 M418.1194684462911,406.84125045352437 L416.129607936165,410.2878037995177 M416.129607936165,410.2878037995177 L414.6323072820781,413.90403126526894 M414.6323072820781,413.90403126526894 L413.7026837542531,417.50852837480124 M413.7026837542531,417.50852837480124 L413.38733621315043,420.9204776876357 M425.95366817921627,399.15495225763266 L514.0062209524724,449.92419857992877 M514.0062209524724,449.92419857992877 L511.21019802190966,451.903538574194 M511.21019802190966,451.903538574194 L508.55366164081835,454.51201666419024 M508.55366164081835,454.51201666419024 L506.1698869654752,457.61878668103617 M506.1698869654752,457.61878668103617 L504.17847404960247,461.06802886184914 M504.17847404960247,461.06802886184914 L502.6793137777428,464.6866787086431 M502.6793137777428,464.6866787086431 L501.7476167202277,468.2932101594584 M501.7476167202277,468.2932101594584 L501.43008576298485,471.7067036909761 M501.34046627159995,587.7765806082768 L504.45373311946713,589.2115295859728 M504.45373311946713,589.2115295859728 L508.0405005002012,590.2101434044582 M508.0405005002012,590.2101434044582 L511.92085792928407,590.7222967210885 M511.92085792928407,590.7222967210885 L515.9001477947636,590.722303652343 M515.9001477947636,590.722303652343 L519.7787244709473,590.2101399388853 M519.7787244709473,590.2101399388853 L523.3620373964218,589.2115295859728 M523.3620373964218,589.2115295859728 L526.4703317777289,587.7765806082768 M501.43008576298485,471.7067036909761 L504.5461303193656,473.14037789883776 M504.5461303193656,473.14037789883776 L508.13609706554075,474.13810460900197 M508.13609706554075,474.13810460900197 L512.0199149870493,474.64980297005775 M512.0199149870493,474.64980297005775 L516.0027528027217,474.6498098951552 M516.0027528027217,474.6498098951552 L519.8847867998227,474.1381011465076 M519.8847867998227,474.1381011465076 L523.4712929227296,473.14037789883776 M523.4712929227296,473.14037789883776 L526.58235614196,471.7067036909761 M526.4703317777289,587.7765806082768 L526.58235614196,471.7067036909761 M425.9257119345754,544.1777523974748 L419.70913421550375,541.3128315450681 M419.70913421550375,541.3128315450681 L412.54616626748884,539.3192938913726 M412.54616626748884,539.3192938913726 L404.7957665788578,538.2969350503378 M404.7957665788578,538.2969350503378 L396.8462419153112,538.2969350503378 M396.8462419153112,538.2969350503378 L389.0958422266802,539.3192938913726 M389.0958422266802,539.3192938913726 L381.93287427866534,541.3128315450681 M381.93287427866534,541.3128315450681 L375.7162965595936,544.1777523974748 M375.7162965595936,544.1777523974748 L378.5088422357712,545.4290144474589 M378.5088422357712,545.4290144474589 L381.1613924800272,545.8911723388429 M381.1613924800272,545.8911723388429 L383.5409440718921,545.5409810879297 M383.5409440718921,545.5409810879297 L385.52814878729987,544.3959135547952 M385.52814878729987,544.3959135547952 L387.02332695323014,542.5133164152105 M387.02332695323014,542.5133164152105 L387.95142791358285,539.9875225647888 M387.95142791358285,539.9875225647888 L388.26585726719225,536.9451610879811 M425.95366817921627,399.15495225763266 L419.73016684289274,396.29321833935927 M419.73016684289274,396.29321833935927 L412.5592222671033,394.3018984594691 M412.5592222671033,394.3018984594691 L404.8001924180052,393.2806770263387 M404.8001924180052,393.2806770263387 L396.8418160761638,393.2806770263387 M396.8418160761638,393.2806770263387 L389.0827862270658,394.3018984594691 M389.0827862270658,394.3018984594691 L381.9118416512763,396.29321833935927 M381.9118416512763,396.29321833935927 L375.68834031495277,399.15495225763266 M375.68834031495277,399.15495225763266 L378.4841197773833,401.13163298371717 M378.4841197773833,401.13163298371717 L381.139932628129,403.7373007703065 M381.139932628129,403.7373007703065 L383.522540047878,406.84125045352437 M383.522540047878,406.84125045352437 L385.5124005580041,410.2878037995177 M385.5124005580041,410.2878037995177 L387.009701212091,413.90403126526894 M387.009701212091,413.90403126526894 L387.93932473991595,417.50852837480124 M387.93932473991595,417.50852837480124 L388.2546722810186,420.9204776876357 M161.79452040648673,667.8148157592976 L388.26585726719225,536.9451610879811 M161.58115153003897,551.6739209034919 L388.2546722810186,420.9204776876357 M161.79452040648673,667.8148157592976 L161.58115153003897,551.6739209034919 M513.8802216018041,595.0034906643058 L614.1872858553172,536.923393167595 M149.27026627278292,675.0327444890129 L375.7162965595936,544.1777523974748 M614.1872858553172,536.923393167595 L526.2329414056439,486.18802682659333 M48.96370919723961,616.8102065576629 L149.27026627278292,675.0327444890129 M526.2329414056439,486.18802682659333 L521.2738269844169,482.6019540617232 M521.2738269844169,482.6019540617232 L517.820183576204,478.4699131751974 M517.820183576204,478.4699131751974 L516.0449583046754,473.9992713492086 M516.0449583046754,473.9992713492086 L516.0368498119599,469.4142973643721 M516.0368498119599,469.4142973643721 L517.7958978409499,464.94489805861036 M517.7958978409499,464.94489805861036 L521.2335539155117,460.81509611712613 M521.2335539155117,460.81509611712613 L526.177215150519,457.2318152690382 M650.8113920522944,269.6418789191565 L48.96370919723961,616.8102065576629 M526.177215150519,457.2318152690382 L751.1179565250898,327.2466753381105 M751.1179565250898,327.2466753381105 L650.8113920522944,269.6418789191565 M513.8802216018041,595.0034906643058 L513.8802216018041,595.0034906643058 M513.8802216018041,595.0034906643058 L516.6787516607724,596.2571287039826 M516.6787516607724,596.2571287039826 L519.3377578987179,596.7212612732004 M519.3377578987179,596.7212612732004 L521.7239074658207,596.3725408266957 M521.7239074658207,596.3725408266957 L523.7175449795895,595.2283800424283 M523.7175449795895,595.2283800424283 L525.2186267741993,593.3460561057009 M525.2186267741993,593.3460561057009 L526.1518473669787,590.8199119975933 M526.1518473669787,590.8199119975933 L526.4703317777289,587.7765806082768 M514.0062209524724,449.92419857992877 L514.0062209524724,449.92419857992877 M514.0062209524724,449.92419857992877 L516.8072252201855,451.903538574194 M516.8072252201855,451.903538574194 L519.4672282158344,454.51201666419024 M519.4672282158344,454.51201666419024 L521.8527748326433,457.61878321939247 M521.8527748326433,457.61878321939247 L523.8441997315035,461.06803232367616 M523.8441997315035,461.06803232367616 L525.3415700873306,464.686675246651 M525.3415700873306,464.686675246651 L526.2698065218674,468.29321015945845 M526.2698065218674,468.29321015945845 L526.58235614196,471.7067036909761 M526.4703317777289,587.7765806082768 L626.78850886327,529.689992410204 M526.58235614196,471.7067036909761 L626.9897938022443,413.6717652323257 M626.78850886327,529.689992410204 L626.9897938022443,413.6717652323257 M149.27026627278292,675.0327444890129 L152.062165407384,676.2901281397242 M152.062165407384,676.2901281397242 L154.71283588233462,676.757375096401 M154.71283588233462,676.757375096401 L157.08936862142076,676.4109849884761 M157.08936862142076,676.4109849884761 L159.0725666111384,675.2682397684039 M159.0725666111384,675.2682397684039 L160.56295090827552,673.3863693721881 M160.56295090827552,673.3863693721881 L161.48571107607773,670.859669930986 M161.48571107607773,670.859669930986 L161.79452040648673,667.8148157592976 M148.989580334405,529.8646798455329 L151.7859805032096,531.8482106135026 M151.7859805032096,531.8482106135026 L154.4436518831396,534.4611162217261 M154.4436518831396,534.4611162217261 L156.82926231611336,537.5723283535131 M156.82926231611336,537.5723283535131 L158.82311962665904,541.0258043330077 M158.82311962665904,541.0258043330077 L160.32521020981997,544.6482671640313 M160.32521020981997,544.6482671640313 L161.26017647657434,548.2579994002347 M161.26017647657434,548.2579994002347 L161.58115153003897,551.6739209034919 M148.989580334405,529.8646798455329 L375.68834031495277,399.15495225763266 M136.63383789695013,667.8148157592976 L136.39800913877104,551.6739209034918 M136.63383789695013,667.8148157592976 L139.7428945155259,669.2532863180422 M139.7428945155259,669.2532863180422 L143.328479651198,670.2543474570313 M143.328479651198,670.2543474570313 L147.21072448440833,670.7677681354783 M147.21072448440833,670.7677681354783 L151.1948944277731,670.7677611872127 M151.1948944277731,670.7677611872127 L155.0810988524795,670.2543509311093 M155.0810988524795,670.2543509311093 L158.67438674403888,669.2532863180422 M158.67438674403888,669.2532863180422 L161.79452040648673,667.8148157592976 M136.39800913877104,551.6739209034918 L139.50983594657134,553.1111167066601 M139.50983594657134,553.1111167066601 L143.09861832935678,554.1112907504516 M143.09861832935678,554.1112907504516 L146.98432702827347,554.6242564692793 M146.98432702827347,554.6242564692793 L150.97205363324855,554.6242495271708 M150.97205363324855,554.6242495271708 L154.86172899086978,554.1112942214513 M154.86172899086978,554.1112942214513 L158.45822789330077,553.1111167066601 M158.45822789330077,553.1111167066601 L161.58115153003897,551.6739209034919 M614.1872858553172,536.923393167595 L616.9860880915207,538.1743162704174 M616.9860880915207,538.1743162704174 L619.6459116205378,538.6361925210333 M619.6459116205378,538.6361925210333 L622.0333826607769,538.2857876103147 M622.0333826607769,538.2857876103147 L624.02877963946,537.1405987921314 M624.02877963946,537.1405987921314 L625.5319707455758,535.2579549725517 M625.5319707455758,535.2579549725517 L626.4675448003086,532.7322152733893 M626.4675448003086,532.7322152733893 L626.78850886327,529.689992410204 M614.1872858553172,536.923393167595 L616.9753884636305,534.9461922753542 M616.9753884636305,534.9461922753542 L619.6247924975603,532.3418658167168 M619.6247924975603,532.3418658167168 L622.002709654289,529.240977190987 M622.002709654289,529.240977190987 L623.9899563924221,525.7989607842503 M623.9899563924221,525.7989607842503 L625.4869428011357,522.188326877618 M625.4869428011357,522.188326877618 L626.4186104709988,518.5900535587348 M626.4186104709988,518.5900535587348 L626.7382435969778,515.1844966753888 M626.7382435969778,515.1844966753888 L538.7741351214997,464.46604212316737 M526.2329414056439,486.18802682659333 L529.0208050501201,484.213477358766 M529.0208050501201,484.213477358766 L531.6694911139948,481.6119515463613 M531.6694911139948,481.6119515463613 L534.0462472522959,478.5138724292421 M534.0462472522959,478.5138724292421 L536.0319480773951,475.07453361921574 M536.0319480773951,475.07453361921574 L537.5270811257897,471.4663112668563 M537.5270811257897,471.4663112668563 L538.4566808590127,467.8700626323949 M538.4566808590127,467.8700626323949 L538.7741351214997,464.46604212316737 M48.96370919723961,616.8102065576629 L46.15765996628551,618.064864681424 M46.15765996628551,618.064864681424 L43.49017733645513,618.529845254425 M43.49017733645513,618.529845254425 L41.09501905824612,618.1817581733249 M41.09501905824612,618.1817581733249 L39.092292134390505,617.0379843152454 M39.092292134390505,617.0379843152454 L37.58249611232861,615.1557813992073 M37.58249611232861,615.1557813992073 L36.641373504017736,612.6294863000471 M36.641373504017736,612.6294863000471 L36.31619575935014,609.5857394401079 M36.31619575935014,609.5857394401079 L136.63383789695013,667.8148157592976 M149.27026627278292,675.0327444890129 L146.46448307672094,676.2901281397242 M146.46448307672094,676.2901281397242 L143.79781189398307,676.757375096401 M143.79781189398307,676.757375096401 L141.4039698363012,676.4109815146489 M141.4039698363012,676.4109815146489 L139.40299797960967,675.268243242293 M139.40299797960967,675.268243242293 L137.89530794704729,673.3863658982796 M137.89530794704729,673.3863658982796 L136.95653672135154,670.859669930986 M136.95653672135154,670.859669930986 L136.63383789695013,667.8148157592976 M538.7741351214997,464.46604212316737 L536.2941646046693,462.6735540993517 M536.2941646046693,462.6735540993517 L534.5667613887017,460.6080449091613 M534.5667613887017,460.6080449091613 L533.6784971448715,458.37312430301876 M533.6784971448715,458.37312430301876 L533.6738218537696,456.08089556989404 M533.6738218537696,456.08089556989404 L534.5528781921237,453.84628559427364 M534.5528781921237,453.84628559427364 L536.271512656132,451.78133613994845 M536.271512656132,451.78133613994845 L538.7434788701944,449.98954609526197 M526.177215150519,457.2318152690382 L528.9701765801412,458.47901784914166 M528.9701765801412,458.47901784914166 L531.6239598799211,458.93780355336963 M531.6239598799211,458.93780355336963 L534.0055000747932,458.5850966264392 M534.0055000747932,458.5850966264392 L535.995349334584,457.43849627570114 M535.995349334584,457.43849627570114 L537.4936954998698,455.55542623069914 M537.4936954998698,455.55542623069914 L538.4253291677853,453.03024331427554 M538.4253291677853,453.03024331427554 L538.7434788701944,449.98954609526197 M650.8113920522944,269.6418789191565 L648.0245821279445,267.6786266397903 M648.0245821279445,267.6786266397903 L645.3789839794715,265.08904084574704 M645.3789839794715,265.08904084574704 L643.0071953004715,262.0029461801678 M643.0071953004715,262.0029461801678 L641.0280926650771,258.575035756366 M641.0280926650771,258.575035756366 L639.5408579795137,254.97711323438577 M639.5408579795137,254.97711323438577 L638.6200609980581,251.38951981578458 M638.6200609980581,251.38951981578458 L638.3118726620337,247.99207626503298 M638.3118726620337,247.99207626503298 L36.39737723117378,595.0446811276598 M48.96370919723961,616.8102065576629 L46.17523641303262,614.8288272761764 M46.17523641303262,614.8288272761764 L43.52470611785475,612.220088535743 M43.52470611785475,612.220088535743 L41.14496302061116,609.1147748649273 M41.14496302061116,609.1147748649273 L39.155282121374,605.6685423725568 M39.155282121374,605.6685423725568 L37.65537527775814,602.0541125385595 M37.65537527775814,602.0541125385595 L36.7204472405262,598.4526536398699 M36.7204472405262,598.4526536398699 L36.39737723117378,595.0446811276598 M538.7434788701944,449.98954609526197 L763.7090249393532,319.9900338606378 M751.1179565250898,327.2466753381105 L753.9115189056324,328.4878208731976 M753.9115189056324,328.4878208731976 L756.567121890369,328.9415788440022 M756.567121890369,328.9415788440022 L758.9516093702907,328.58512580551076 M758.9516093702907,328.58512580551076 L760.9453858909862,327.43624911064217 M760.9453858909862,327.43624911064217 L762.4484425459138,325.5524869207501 M762.4484425459138,325.5524869207501 L763.3853338931892,323.0282310845475 M763.3853338931892,323.0282310845475 L763.7090249393532,319.9900338606378 M751.1179565250898,327.2466753381105 L753.8940980023287,325.28042090575957 M753.8940980023287,325.28042090575957 L756.5328986752522,322.6876610176538 M756.5328986752522,322.6876610176538 L758.9020954935083,319.59838282887415 M758.9020954935083,319.59838282887415 L760.8829652630877,316.1674253963523 M760.8829652630877,316.1674253963523 L762.3761964607356,312.5667687232374 M762.3761964607356,312.5667687232374 L763.3069599810156,308.9768672958979 M763.3069599810156,308.9768672958979 L763.6285619635901,305.5776710851806 M763.6285619635901,305.5776710851806 L663.3109114425547,247.99207626503306 M650.8113920522944,269.6418789191565 L653.5872672829114,267.6786266397903 M653.5872672829114,267.6786266397903 L656.2252563037839,265.08904084574704 M656.2252563037839,265.08904084574704 L658.5931367143862,262.00294961008126 M658.5931367143862,262.00294961008126 L660.5722512580614,258.57503232663356 M660.5722512580614,258.57503232663356 L662.0633763451474,254.97711666395486 M662.0633763451474,254.97711666395486 L662.991788406712,251.38951981578458 M662.991788406712,251.38951981578458 L663.3109114425547,247.99207626503306 M514.0062209524724,449.92419857992877 L614.42486104918,391.90866331033175 M614.42486104918,391.90866331033175 L617.2255779816439,393.8849646214075 M617.2255779816439,393.8849646214075 L619.8847478327652,396.49023139256667 M619.8847478327652,396.49023139256667 L622.2689573376172,399.5937751251151 M622.2689573376172,399.5937751251151 L624.2586082560495,403.03995160516604 M624.2586082560495,403.03995160516604 L625.7538568251596,406.6558263625532 M625.7538568251596,406.6558263625532 L626.6797301201213,410.2600364677362 M626.6797301201213,410.2600364677362 L626.9897938022443,413.6717652323257 M614.42486104918,391.90866331033175 L617.214854632914,390.66041422827874 M617.214854632914,390.66041422827874 L619.8635825859703,390.20276910948814 M619.8635825859703,390.20276910948814 L622.2382189655775,390.5585890726286 M622.2382189655775,390.5585890726286 L624.219705031323,391.709982544389 M624.219705031323,391.709982544389 L625.7087399160516,393.59909389923797 M625.7087399160516,393.59909389923797 L626.6307037273552,396.1311637692806 M626.6307037273552,396.1311637692806 L626.9394389565234,399.1791819419586 M614.42486104918,391.90866331033175 L526.3724740460073,341.22978889696594 M626.9394389565234,399.1791819419586 L538.8968965282847,348.5059208899282 M526.3724740460073,341.22978889696594 L529.1627203144869,339.9839079599999 M529.1627203144869,339.9839079599999 L531.812180548565,339.52822786127587 M531.812180548565,339.52822786127587 L534.187992029455,339.88551126883436 M534.187992029455,339.88551126883436 L536.1710370481919,341.03779332066756 M536.1710370481919,341.03779332066756 L537.6619364714447,342.9271739827374 M537.6619364714447,342.9271739827374 L538.585976860302,345.45888047345915 M538.585976860302,345.45888047345915 L538.8968965282847,348.5059208899282 M48.57144911357199,471.706703690976 L45.76424560539522,473.6871851761386 M45.76424560539522,473.6871851761386 L43.09969069681483,476.2968693962545 M43.09969069681483,476.2968693962545 L40.711467927971285,479.40484620172106 M40.711467927971285,479.40484620172106 L38.71937697062003,482.8552489531519 M38.71937697062003,482.8552489531519 L37.223384089141234,486.4749310015979 M37.223384089141234,486.4749310015979 L36.29849949113873,490.08233837757854 M36.29849949113873,490.08233837757854 L35.99110785880367,493.4964939207896 M48.57144911357199,471.706703690976 L148.989580334405,529.8646798455329 M35.99110785880367,493.4964939207896 L136.39800913877104,551.6739209034918 M148.989580334405,529.8646798455329 L146.18208333666243,531.8482106135025 M146.18208333666243,531.8482106135025 L143.51668944582065,534.461116221726 M143.51668944582065,534.461116221726 L141.12712433703894,537.572324883366 M141.12712433703894,537.572324883366 L139.13325504355112,541.0258078033384 M139.13325504355112,541.0258078033384 L137.63513711069731,544.648263693535 M137.63513711069731,544.648263693535 L136.7078873632977,548.2579994002347 M136.7078873632977,548.2579994002347 L136.39800913877104,551.6739209034918 M526.3724740460073,341.22978889696594 L521.4078347579616,337.6477124118032 M521.4078347579616,337.6477124118032 L517.9503407933666,333.52027676968873 M517.9503407933666,333.52027676968873 L516.1731318453869,329.0546182217078 M516.1731318453869,329.0546182217078 L516.1650053037224,324.4747556652785 M516.1650053037224,324.4747556652785 L517.9260009997306,320.010339632909 M517.9260009997306,320.010339632909 L521.3674720439644,315.8851429275194 M521.3674720439644,315.8851429275194 L526.3166237480539,312.3058583487683 M538.8968965282847,348.5059208899282 L536.4147158210467,346.7150313762068 M536.4147158210467,346.7150313762068 L534.6857716929062,344.65136428046367 M534.6857716929062,344.65136428046367 L533.7967129897881,342.4184369870573 M533.7967129897881,342.4184369870573 L533.7920293750362,340.1282528210831 M533.7920293750362,340.1282528210831 L534.6718637793927,337.895636157276 M534.6718637793927,337.895636157276 L536.3920235441342,335.83252879573513 M536.3920235441342,335.83252879573513 L538.866185698151,334.0423372590693 M526.3166237480539,312.3058583487683 L529.1119797147292,314.27799400040146 M529.1119797147292,314.27799400040146 L531.7665499746249,316.8788571144762 M531.7665499746249,316.8788571144762 L534.1471581133308,319.97798359798685 M534.1471581133308,319.97798359798685 L536.1343629799787,323.419937252959 M536.1343629799787,323.419937252959 L537.6284849537951,327.03201939872827 M537.6284849537951,327.03201939872827 L538.5545662440941,330.63303362412705 M538.5545662440941,330.63303362412705 L538.866185698151,334.0423372590693 M651.0886047245112,124.92574407877441 L648.2973224725863,123.68994622929733 M648.2973224725863,123.68994622929733 L645.644785749508,123.242624903599 M645.644785749508,123.242624903599 L643.264011780662,123.60612398339327 M643.264011780662,123.60612398339327 L641.2743673018635,124.76216732965446 M641.2743673018635,124.76216732965446 L639.7755627702843,126.65266693464781 M639.7755627702843,126.65266693464781 L638.8427082369014,129.18279429310957 M638.8427082369014,129.18279429310957 L638.5225075785881,132.22563706174185 M651.0886047245112,124.92574407877441 L48.57144911357199,471.706703690976 M638.5225075785881,132.22563706174185 L36.07243418434723,478.9683480051917 M48.57144911357199,471.706703690976 L45.78186106654937,470.4547213596604 M45.78186106654937,470.4547213596604 L43.13429498103142,469.9939770735208 M43.13429498103142,469.9939770735208 L40.76151844973941,470.3474872247041 M40.76151844973941,470.3474872247041 L38.78249688293761,471.49747591456895 M38.78249688293761,471.49747591456895 L37.296407419725085,473.38615772504426 M37.296407419725085,473.38615772504426 L36.377722176908435,475.9187946846201 M36.377722176908435,475.9187946846201 L36.07243418434723,478.9683480051917 M526.3166237480539,312.3058583487683 L751.5067433755648,182.4659809955604 M538.866185698151,334.0423372590693 L764.0312340587247,204.15903519771652 M751.5067433755648,182.4659809955604 L754.3014497270979,184.43133124203845 M754.3014497270979,184.43133124203845 L756.9541508336204,187.0250179606112 M756.9541508336204,187.0250179606112 L759.3317641521403,190.1169371280901 M759.3317641521403,190.1169371280901 L761.3149988177277,193.55201422044775 M761.3149988177277,193.55201422044775 L762.8043745315697,197.1578956970973 M762.8043745315697,197.1578956970973 L763.7251716302337,200.75369637466935 M763.7251716302337,200.75369637466935 L764.0312340587247,204.15903519771652 M751.5067433755648,182.4659809955604 L754.283990326413,181.2275047581512 M754.283990326413,181.2275047581512 L756.9198531162635,180.7779643281044 M756.9198531162635,180.7779643281044 L759.282145115463,181.139818199478 M759.282145115463,181.139818199478 L761.2524499985066,182.29485906672818 M761.2524499985066,182.29485906672818 L762.7319861800227,184.1850727040501 M762.7319861800227,184.1850727040501 L763.646650742701,186.7156211620513 M763.646650742701,186.7156211620513 L763.9506281488686,189.75958443902832 M751.5067433755648,182.4659809955604 L651.0886047245112,124.92574407877441 M763.9506281488686,189.75958443902832 L663.5437184555883,132.2256370617419 M651.0886047245112,124.92574407877441 L653.8661449524225,123.68994622929733 M653.8661449524225,123.68994622929733 L656.5028465191829,123.24262490359905 M656.5028465191829,123.24262490359905 L658.8664806712279,123.60612740962665 M658.8664806712279,123.60612740962665 L660.8385637321453,124.76216390348037 M660.8385637321453,124.76216390348037 L662.3202248448772,126.65267036080456 M662.3202248448772,126.65267036080456 L663.237254482129,129.18279429310957 M663.237254482129,129.18279429310957 L663.5437184555883,132.2256370617419 M626.78850886327,529.689992410204 L629.2609387667587,527.8939132759444 M629.2609387667587,527.8939132759444 L630.9785150430982,525.8242626626031 M630.9785150430982,525.8242626626031 L631.8551827848373,523.5848717647616 M631.8551827848373,523.5848717647616 L631.8470324954096,521.288044260571 M631.8470324954096,521.288044260571 L630.9546061085055,519.0489614681314 M630.9546061085055,519.0489614681314 L629.2227039639461,516.9798757321531 M629.2227039639461,516.9798757321531 L626.7382435969778,515.1844966753888 M626.9897938022443,413.6717652323257 L629.4644204609499,411.8772846130962 M629.4644204609499,411.8772846130962 L631.183520146767,409.8094761032953 M631.183520146767,409.8094761032953 L632.0609616772576,407.5720785189354 M632.0609616772576,407.5720785189354 L632.0527968735955,405.2772955955584 M632.0527968735955,405.2772955955584 L631.1595685979189,403.04020611958606 M631.1595685979189,403.04020611958606 L629.4261175186041,400.9729624839021 M629.4261175186041,400.9729624839021 L626.9394389565234,399.1791819419586 M626.7382435969778,515.1844966753888 L626.9394389565234,399.1791819419586 M149.27026627278292,675.0327444890129 L149.27026627278292,675.0327444890129 M148.989580334405,529.8646798455329 L148.989580334405,529.8646798455329 M36.31619575935014,609.5857394401079 L35.99110785880367,493.4964939207896 M614.1872858553172,536.923393167595 L614.1872858553172,536.923393167595 M538.7741351214997,464.46604212316737 L538.8968965282847,348.5059208899282 M48.96370919723961,616.8102065576629 L48.96370919723961,616.8102065576629 M36.39737723117378,595.0446811276598 L33.90605450731198,596.8444614178406 M33.90605450731198,596.8444614178406 L32.16762950780674,598.9186195086725 M32.16762950780674,598.9186195086725 L31.269346918734527,601.163191584713 M31.269346918734527,601.163191584713 L31.25630084506099,603.4656501343314 M31.25630084506099,603.4656501343314 L32.12927901022931,605.710531453771 M32.12927901022931,605.710531453771 L33.844557115783346,607.7852564963241 M33.844557115783346,607.7852564963241 L36.31619575935014,609.5857394401079 M538.7434788701944,449.98954609526197 L538.866185698151,334.0423372590693 M650.8113920522944,269.6418789191565 L650.8113920522944,269.6418789191565 M663.3109114425547,247.99207626503306 L660.2104458326874,246.5720914348806 M660.2104458326874,246.5720914348806 L656.640240184528,245.58396843272592 M656.640240184528,245.58396843272592 L652.779277576431,245.07720683262744 M652.779277576431,245.07720683262744 L648.8210603969487,245.07721369066647 M648.8210603969487,245.07721369066647 L644.9639941431476,245.5839650036529 M644.9639941431476,245.5839650036529 L641.4014035786843,246.5720914348806 M641.4014035786843,246.5720914348806 L638.3118726620337,247.99207626503298 M638.3118726620337,247.99207626503298 L638.5225075785881,132.22563706174185 M36.39737723117378,595.0446811276598 L36.07243418434723,478.9683480051917 M763.7090249393532,319.9900338606378 L764.0312340587247,204.15903519771652 M751.1179565250898,327.2466753381105 L751.1179565250898,327.2466753381105 M763.7090249393532,319.9900338606378 L766.1697451379,318.20548762344583 M766.1697451379,318.20548762344583 L767.8774729334284,316.1491295957243 M767.8774729334284,316.1491295957243 L768.7466173629639,313.9241138336374 M768.7466173629639,313.9241138336374 L768.7337105652855,311.64203317739646 M768.7337105652855,311.64203317739646 L767.8394499507544,309.41732941948123 M767.8394499507544,309.41732941948123 L766.1087920286109,307.36152397634567 M766.1087920286109,307.36152397634567 L763.6285619635901,305.5776710851806 M763.6285619635901,305.5776710851806 L763.9506281488686,189.75958443902832 M663.3109114425547,247.99207626503306 L663.5437184555883,132.2256370617419 M614.42486104918,391.90866331033175 L614.42486104918,391.90866331033175 M48.57144911357199,471.706703690976 L48.57144911357199,471.706703690976 M36.07243418434723,478.9683480051917 L33.57888101157397,480.7665297852946 M33.57888101157397,480.7665297852946 L31.838895425649014,482.83884578170046 M31.838895425649014,482.83884578170046 L30.939800482704754,485.0814245481098 M30.939800482704754,485.0814245481098 L30.92673114135971,487.3818385244514 M30.92673114135971,487.3818385244514 L31.80047649316532,489.6247265382684 M31.80047649316532,489.6247265382684 L33.517273889023215,491.69760948499334 M33.517273889023215,491.69760948499334 L35.99110785880367,493.4964939207896 M651.0886047245112,124.92574407877441 L651.0886047245112,124.92574407877441 M663.5437184555883,132.2256370617419 L660.4404979512224,130.80692693293338 M660.4404979512224,130.80692693293338 L656.8671224367979,129.8196909880249 M656.8671224367979,129.8196909880249 L653.0027338530365,129.3133843280142 M653.0027338530365,129.3133843280142 L649.0410062174162,129.31339117989648 M649.0410062174162,129.31339117989648 L645.1805209075153,129.81968756203025 M645.1805209075153,129.81968756203025 L641.6147739849966,130.80692693293338 M641.6147739849966,130.80692693293338 L638.5225075785881,132.22563706174185 M751.5067433755648,182.4659809955604 L751.5067433755648,182.4659809955604 M764.0312340587247,204.15903519771652 L766.4941302224365,202.37608742558746 M766.4941302224365,202.37608742558746 L768.2033639520075,200.3215714397026 M768.2033639520075,200.3215714397026 L769.0732688586404,198.09854892947902 M769.0732688586404,198.09854892947902 L769.0603391227778,195.81851278633152 M769.0603391227778,195.81851278633152 L768.1652734307686,193.59580227445792 M768.1652734307686,193.59580227445792 L766.4330688363,191.54183887129437 M766.4330688363,191.54183887129437 L763.9506281488686,189.75958443902832" stroke="black"  stroke-width="4"  fill="red"/></svg>