<svg viewBox="0 0 800 800" xmlns="http://www.w3.org/2000/svg"><path d="M400.83775857412445,544.0971329985132 L400.83775857412445,399.074332858671 M513.9221533517043,609.4590631313091 L514.0482088580889,464.3636305201783 M400.83775857412445,544.0971329985132 L513.9221533517043,609.4590631313091 M400.83775857412445,399.074332858671 L514.0482088580889,464.3636305201783 M639.3059556656785,536.8427737686335 L639.5714808823487,391.8280439113701 M513.9221533517043,609.4590631313091 L639.3059556656785,536.8427737686335 M514.0482088580889,464.3636305201783 L639.5714808823487,391.8280439113701 M526.2218264133152,471.62608429201447 L526.361297011579,326.68398687901686 M639.3059556656785,536.8427737686335 L526.2218264133152,471.62608429201447 M639.5714808823487,391.8280439113701 L526.361297011579,326.68398687901686 M776.15592172913,327.16605593914886 L776.5724790689247,182.38536159659876 M526.2218264133152,471.62608429201447 L776.15592172913,327.16605593914886 M526.361297011579,326.68398687901686 L776.5724790689247,182.38536159659876 M650.7727775226774,255.1760085872224 L651.0498673441282,110.47601340985045 M776.15592172913,327.16605593914886 L650.7727775226774,255.1760085872224 M776.5724790689247,182.38536159659876 L651.0498673441282,110.47601340985045 M23.847799592147794,616.7295871587012 L23.42752093107532,471.62608429201435 M650.7727775226774,255.1760085872224 L23.847799592147794,616.7295871587012 M651.0498673441282,110.47601340985045 L23.42752093107532,471.62608429201435 M149.23093347875837,689.5239865901495 L148.95012229003584,544.339781599093 M23.847799592147794,616.7295871587012 L149.23093347875837,689.5239865901495 M23.42752093107532,471.62608429201435 L148.95012229003584,544.339781599093 M149.23093347875837,689.5239865901495 L400.83775857412445,544.0971329985132 M148.95012229003584,544.339781599093 L400.83775857412445,399.074332858671" stroke="black"  stroke-width="4"  fill="red"/></svg>